{
  "accessors": [
    {
      "bufferView": 2,
      "componentType": 5126,
      "count": 35731,
      "max": [
        0.7061690092086792,
        0.6214240193367004,
        0.11778900027275085
      ],
      "min": [
        -0.642333984375,
        -0.4924049973487854,
        -0.09619899839162827
      ],
      "type": "VEC3"
    },
    {
      "bufferView": 2,
      "byteOffset": 428772,
      "componentType": 5126,
      "count": 35731,
      "max": [
        0.9999580979347229,
        0.9999372363090515,
        0.9999997615814209
      ],
      "min": [
        -0.9999103546142578,
        -0.9996600151062012,
        -0.9999949932098389
      ],
      "type": "VEC3"
    },
    {
      "bufferView": 3,
      "componentType": 5126,
      "count": 35731,
      "max": [
        0.9999805092811584,
        0.9999061822891235,
        0.9960964322090149,
        1.0
      ],
      "min": [
        -0.999999463558197,
        -0.9999520778656006,
        -0.9999950528144836,
        -1.0
      ],
      "type": "VEC4"
    },
    {
      "bufferView": 1,
      "componentType": 5126,
      "count": 35731,
      "max": [
        1.0,
        1.0
      ],
      "min": [
        0.0,
        1.8999999156221747e-05
      ],
      "type": "VEC2"
    },
    {
      "bufferView": 0,
      "componentType": 5125,
      "count": 189798,
      "type": "SCALAR"
    }
  ],
  "asset": {
    "extras": {
      "author": "Minneapolis Institute of Art (https://sketchfab.com/artsmia)",
      "license": "CC0-1.0 (http://creativecommons.org/publicdomain/zero/1.0/)",
      "source": "https://sketchfab.com/3d-models/udjat-eye-of-ra-1297-1185-bce-7300d219ed944585ace4b2509bef4f6e",
      "title": "Udjat Eye of Ra, 1297-1185 BCE"
    },
    "generator": "Sketchfab-12.63.0",
    "version": "2.0"
  },
  "bufferViews": [
    {
      "buffer": 0,
      "byteLength": 759192,
      "name": "floatBufferViews",
      "target": 34963
    },
    {
      "buffer": 0,
      "byteLength": 285848,
      "byteOffset": 759192,
      "byteStride": 8,
      "name": "floatBufferViews",
      "target": 34962
    },
    {
      "buffer": 0,
      "byteLength": 857544,
      "byteOffset": 1045040,
      "byteStride": 12,
      "name": "floatBufferViews",
      "target": 34962
    },
    {
      "buffer": 0,
      "byteLength": 571696,
      "byteOffset": 1902584,
      "byteStride": 16,
      "name": "floatBufferViews",
      "target": 34962
    }
  ],
  "buffers": [
    {
      "byteLength": 2474280,
      "uri": "scene.bin"
    }
  ],
  "images": [
    {
      "uri": "textures/EyeOfRah_OBJ_MeshSG_baseColor.png"
    },
    {
      "uri": "textures/EyeOfRah_OBJ_MeshSG_normal.png"
    }
  ],
  "materials": [
    {
      "doubleSided": true,
      "name": "EyeOfRah_OBJ_MeshSG",
      "normalTexture": {
        "index": 1
      },
      "pbrMetallicRoughness": {
        "baseColorTexture": {
          "index": 0
        },
        "metallicFactor": 0.0,
        "roughnessFactor": 0.6
      }
    }
  ],
  "meshes": [
    {
      "name": "Object_0",
      "primitives": [
        {
          "attributes": {
            "NORMAL": 1,
            "POSITION": 0,
            "TANGENT": 2,
            "TEXCOORD_0": 3
          },
          "indices": 4,
          "material": 0,
          "mode": 4
        }
      ]
    }
  ],
  "nodes": [
    {
      "children": [
        1
      ],
      "matrix": [
        -0.4336159088355025,
        0.046991623470829864,
        -0.042463539725116725,
        0.0,
        0.04803597014206229,
        0.43549156935275235,
        -0.008588665278296728,
        0.0,
        0.0412784499507004,
        -0.013153208954723064,
        -0.4360701744464457,
        0.0,
        -1.6263877153396606,
        8.276094436645508,
        -2.530756235122679,
        1.0
      ],
      "name": "Sketchfab_model"
    },
    {
      "children": [
        2
      ],
      "name": "EyeOfRah_OBJ_.obj.cleaner.materialmerger.gles"
    },
    {
      "mesh": 0,
      "name": "Object_2"
    }
  ],
  "samplers": [
    {
      "magFilter": 9729,
      "minFilter": 9987,
      "wrapS": 10497,
      "wrapT": 10497
    }
  ],
  "scene": 0,
  "scenes": [
    {
      "name": "Sketchfab_Scene",
      "nodes": [
        0
      ]
    }
  ],
  "textures": [
    {
      "sampler": 0,
      "source": 0
    },
    {
      "sampler": 0,
      "source": 1
    }
  ]
}
