{
  "accessors": [
    {
      "bufferView": 2,
      "componentType": 5126,
      "count": 40174,
      "max": [
        0.8554549813270569,
        1.7481369972229004,
        2.385925054550171
      ],
      "min": [
        0.33013999462127686,
        1.5256470441818237,
        1.684872031211853
      ],
      "type": "VEC3"
    },
    {
      "bufferView": 2,
      "byteOffset": 482088,
      "componentType": 5126,
      "count": 40174,
      "max": [
        0.9999881386756897,
        0.9999796152114868,
        0.9999770522117615
      ],
      "min": [
        -0.9998499751091003,
        -0.9999759197235107,
        -0.9999838471412659
      ],
      "type": "VEC3"
    },
    {
      "bufferView": 3,
      "componentType": 5126,
      "count": 40174,
      "max": [
        0.999943733215332,
        0.9998045563697815,
        0.9999982714653015,
        1.0
      ],
      "min": [
        -0.9999378323554993,
        -0.999973714351654,
        -0.9999249577522278,
        -1.0
      ],
      "type": "VEC4"
    },
    {
      "bufferView": 1,
      "componentType": 5126,
      "count": 40174,
      "max": [
        0.9998689889907837,
        0.998803973197937
      ],
      "min": [
        0.00020300000323913991,
        5.900000178371556e-05
      ],
      "type": "VEC2"
    },
    {
      "bufferView": 0,
      "componentType": 5125,
      "count": 191982,
      "type": "SCALAR"
    }
  ],
  "asset": {
    "extras": {
      "author": "Minneapolis Institute of Art (https://sketchfab.com/artsmia)",
      "license": "CC0-1.0 (http://creativecommons.org/publicdomain/zero/1.0/)",
      "source": "https://sketchfab.com/3d-models/shiva-nataraja-lord-of-the-dance-227d1524875042ce90176129ba98de6c",
      "title": "Shiva Nataraja, Lord of the Dance"
    },
    "generator": "Sketchfab-12.64.0",
    "version": "2.0"
  },
  "bufferViews": [
    {
      "buffer": 0,
      "byteLength": 767928,
      "name": "floatBufferViews",
      "target": 34963
    },
    {
      "buffer": 0,
      "byteLength": 321392,
      "byteOffset": 767928,
      "byteStride": 8,
      "name": "floatBufferViews",
      "target": 34962
    },
    {
      "buffer": 0,
      "byteLength": 964176,
      "byteOffset": 1089320,
      "byteStride": 12,
      "name": "floatBufferViews",
      "target": 34962
    },
    {
      "buffer": 0,
      "byteLength": 642784,
      "byteOffset": 2053496,
      "byteStride": 16,
      "name": "floatBufferViews",
      "target": 34962
    }
  ],
  "buffers": [
    {
      "byteLength": 2696280,
      "uri": "scene.bin"
    }
  ],
  "images": [
    {
      "uri": "textures/MIa_000376_ShivaNataraja_64kMesh_baseColor.jpeg"
    },
    {
      "uri": "textures/MIa_000376_ShivaNataraja_64kMesh_metallicRoughness.png"
    },
    {
      "uri": "textures/MIa_000376_ShivaNataraja_64kMesh_normal.jpeg"
    }
  ],
  "materials": [
    {
      "doubleSided": true,
      "name": "MIa_000376_ShivaNataraja_64kMesh",
      "normalTexture": {
        "index": 2
      },
      "occlusionTexture": {
        "index": 1
      },
      "pbrMetallicRoughness": {
        "baseColorTexture": {
          "index": 0
        },
        "metallicFactor": 0.0,
        "metallicRoughnessTexture": {
          "index": 1
        }
      }
    }
  ],
  "meshes": [
    {
      "name": "Object_0",
      "primitives": [
        {
          "attributes": {
            "NORMAL": 1,
            "POSITION": 0,
            "TANGENT": 2,
            "TEXCOORD_0": 3
          },
          "indices": 4,
          "material": 0,
          "mode": 4
        }
      ]
    }
  ],
  "nodes": [
    {
      "children": [
        1
      ],
      "matrix": [
        1.0,
        0.0,
        0.0,
        0.0,
        0.0,
        2.220446049250313e-16,
        -1.0,
        0.0,
        0.0,
        1.0,
        2.220446049250313e-16,
        0.0,
        0.0,
        0.0,
        0.0,
        1.0
      ],
      "name": "Sketchfab_model"
    },
    {
      "children": [
        2
      ],
      "name": "MIa_000376_ShivaNataraja_64kMesh.obj.cleaner.materialmerger.gles"
    },
    {
      "mesh": 0,
      "name": "Object_2"
    }
  ],
  "samplers": [
    {
      "magFilter": 9729,
      "minFilter": 9987,
      "wrapS": 10497,
      "wrapT": 10497
    }
  ],
  "scene": 0,
  "scenes": [
    {
      "name": "Sketchfab_Scene",
      "nodes": [
        0
      ]
    }
  ],
  "textures": [
    {
      "sampler": 0,
      "source": 0
    },
    {
      "sampler": 0,
      "source": 1
    },
    {
      "sampler": 0,
      "source": 2
    }
  ]
}
