{
    "asset" : {
        "generator" : "Khronos glTF Blender I/O v3.3.32",
        "version" : "2.0"
    },
    "scene" : 0,
    "scenes" : [
        {
            "name" : "Scene",
            "nodes" : [
                2
            ]
        }
    ],
    "nodes" : [
        {
            "mesh" : 0,
            "name" : "Object_2",
            "translation" : [
                -0.5599997639656067,
                -1.6799993515014648,
                -1.7199993133544922
            ]
        },
        {
            "children" : [
                0
            ],
            "name" : "MIa_000376_ShivaNataraja_64kMesh.obj.cleaner.materialmerger.gle"
        },
        {
            "children" : [
                1
            ],
            "name" : "Sketchfab_model",
            "rotation" : [
                -0.7071068286895752,
                0,
                0,
                0.7071067094802856
            ]
        }
    ],
    "materials" : [
        {
            "doubleSided" : true,
            "name" : "MIa_000376_ShivaNataraja_64kMesh",
            "normalTexture" : {
                "index" : 0
            },
            "occlusionTexture" : {
                "index" : 1
            },
            "pbrMetallicRoughness" : {
                "baseColorTexture" : {
                    "index" : 2
                },
                "metallicFactor" : 0,
                "metallicRoughnessTexture" : {
                    "index" : 1
                }
            }
        }
    ],
    "meshes" : [
        {
            "name" : "Object_0",
            "primitives" : [
                {
                    "attributes" : {
                        "POSITION" : 0,
                        "NORMAL" : 1,
                        "TEXCOORD_0" : 2
                    },
                    "indices" : 3,
                    "material" : 0
                }
            ]
        }
    ],
    "textures" : [
        {
            "sampler" : 0,
            "source" : 0
        },
        {
            "sampler" : 0,
            "source" : 1
        },
        {
            "sampler" : 0,
            "source" : 2
        }
    ],
    "images" : [
        {
            "mimeType" : "image/jpeg",
            "name" : "MIa_000376_ShivaNataraja_64kMesh_normal",
            "uri" : "textures/MIa_000376_ShivaNataraja_64kMesh_normal.jpg"
        },
        {
            "mimeType" : "image/png",
            "name" : "MIa_000376_ShivaNataraja_64kMesh_metallicRoughness",
            "uri" : "textures/MIa_000376_ShivaNataraja_64kMesh_metallicRoughness.png"
        },
        {
            "mimeType" : "image/jpeg",
            "name" : "MIa_000376_ShivaNataraja_64kMesh_baseColor",
            "uri" : "textures/MIa_000376_ShivaNataraja_64kMesh_baseColor.jpg"
        }
    ],
    "accessors" : [
        {
            "bufferView" : 0,
            "componentType" : 5126,
            "count" : 40283,
            "max" : [
                0.8554549813270569,
                1.7481369972229004,
                2.385925054550171
            ],
            "min" : [
                0.33013999462127686,
                1.5256470441818237,
                1.684872031211853
            ],
            "type" : "VEC3"
        },
        {
            "bufferView" : 1,
            "componentType" : 5126,
            "count" : 40283,
            "type" : "VEC3"
        },
        {
            "bufferView" : 2,
            "componentType" : 5126,
            "count" : 40283,
            "type" : "VEC2"
        },
        {
            "bufferView" : 3,
            "componentType" : 5123,
            "count" : 191982,
            "type" : "SCALAR"
        }
    ],
    "bufferViews" : [
        {
            "buffer" : 0,
            "byteLength" : 483396,
            "byteOffset" : 0,
            "target" : 34962
        },
        {
            "buffer" : 0,
            "byteLength" : 483396,
            "byteOffset" : 483396,
            "target" : 34962
        },
        {
            "buffer" : 0,
            "byteLength" : 322264,
            "byteOffset" : 966792,
            "target" : 34962
        },
        {
            "buffer" : 0,
            "byteLength" : 383964,
            "byteOffset" : 1289056,
            "target" : 34963
        }
    ],
    "samplers" : [
        {
            "magFilter" : 9729,
            "minFilter" : 9987
        }
    ],
    "buffers" : [
        {
            "byteLength" : 1673020,
            "uri" : "test1.bin"
        }
    ]
}
